solid OpenSCAD_Model
  facet normal -0.998026 0.0627981 0
    outer loop
      vertex -33 7 0
      vertex -32.9763 7.376 4
      vertex -32.9763 7.376 0
    endloop
  endfacet
  facet normal -0.998026 0.0627981 0
    outer loop
      vertex -32.9763 7.376 4
      vertex -33 7 0
      vertex -33 7 4
    endloop
  endfacet
  facet normal 0 1 -0
    outer loop
      vertex -30 9.99408 0
      vertex -30.1884 9.99408 4
      vertex -30 9.99408 4
    endloop
  endfacet
  facet normal 0 1 0
    outer loop
      vertex -30.1884 9.99408 4
      vertex -30 9.99408 0
      vertex -30.1884 9.99408 0
    endloop
  endfacet
  facet normal -0.684549 0.728967 0
    outer loop
      vertex -31.9123 9.31154 0
      vertex -32.1869 9.05364 4
      vertex -31.9123 9.31154 4
    endloop
  endfacet
  facet normal -0.684549 0.728967 0
    outer loop
      vertex -32.1869 9.05364 4
      vertex -31.9123 9.31154 0
      vertex -32.1869 9.05364 0
    endloop
  endfacet
  facet normal -0.368128 0.929775 0
    outer loop
      vertex -30.9271 9.85317 0
      vertex -31.2773 9.71448 4
      vertex -30.9271 9.85317 4
    endloop
  endfacet
  facet normal -0.368128 0.929775 0
    outer loop
      vertex -31.2773 9.71448 4
      vertex -30.9271 9.85317 0
      vertex -31.2773 9.71448 0
    endloop
  endfacet
  facet normal -0.904829 0.425776 0
    outer loop
      vertex -32.7893 8.10437 0
      vertex -32.6289 8.44526 4
      vertex -32.6289 8.44526 0
    endloop
  endfacet
  facet normal -0.904829 0.425776 0
    outer loop
      vertex -32.6289 8.44526 4
      vertex -32.7893 8.10437 0
      vertex -32.7893 8.10437 4
    endloop
  endfacet
  facet normal -0.951056 0.309019 0
    outer loop
      vertex -32.9058 7.74607 0
      vertex -32.7893 8.10437 4
      vertex -32.7893 8.10437 0
    endloop
  endfacet
  facet normal -0.951056 0.309019 0
    outer loop
      vertex -32.7893 8.10437 4
      vertex -32.9058 7.74607 0
      vertex -32.9058 7.74607 4
    endloop
  endfacet
  facet normal -0.248688 0.968584 0
    outer loop
      vertex -30.5621 9.94686 0
      vertex -30.9271 9.85317 4
      vertex -30.5621 9.94686 4
    endloop
  endfacet
  facet normal -0.248688 0.968584 0
    outer loop
      vertex -30.9271 9.85317 4
      vertex -30.5621 9.94686 0
      vertex -30.9271 9.85317 0
    endloop
  endfacet
  facet normal -0.844326 0.535829 0
    outer loop
      vertex -32.6289 8.44526 0
      vertex -32.4271 8.76336 4
      vertex -32.4271 8.76336 0
    endloop
  endfacet
  facet normal -0.844326 0.535829 0
    outer loop
      vertex -32.4271 8.76336 4
      vertex -32.6289 8.44526 0
      vertex -32.6289 8.44526 4
    endloop
  endfacet
  facet normal -0.770511 0.637427 0
    outer loop
      vertex -32.4271 8.76336 0
      vertex -32.1869 9.05364 4
      vertex -32.1869 9.05364 0
    endloop
  endfacet
  facet normal -0.770511 0.637427 0
    outer loop
      vertex -32.1869 9.05364 4
      vertex -32.4271 8.76336 0
      vertex -32.4271 8.76336 4
    endloop
  endfacet
  facet normal -0.982289 0.187372 0
    outer loop
      vertex -32.9763 7.376 0
      vertex -32.9058 7.74607 4
      vertex -32.9058 7.74607 0
    endloop
  endfacet
  facet normal -0.982289 0.187372 0
    outer loop
      vertex -32.9058 7.74607 4
      vertex -32.9763 7.376 0
      vertex -32.9763 7.376 4
    endloop
  endfacet
  facet normal -0 0 1
    outer loop
      vertex -30.191 -0.587785 4
      vertex -28.5 -6.25 4
      vertex -30.0489 -0.309016 4
    endloop
  endfacet
  facet normal -0 0 1
    outer loop
      vertex -30.4122 -0.809016 4
      vertex -28.5 -6.25 4
      vertex -30.191 -0.587785 4
    endloop
  endfacet
  facet normal -0 0 1
    outer loop
      vertex -30.691 -0.951056 4
      vertex -28.5 -6.25 4
      vertex -30.4122 -0.809016 4
    endloop
  endfacet
  facet normal 0 -0 1
    outer loop
      vertex -32.9763 -7.376 4
      vertex -28.5 -6.25 4
      vertex -33 -7 4
    endloop
  endfacet
  facet normal 0 0 1
    outer loop
      vertex -28.5 -6.25 4
      vertex -30.5621 -9.94686 4
      vertex -30 -9.99408 4
    endloop
  endfacet
  facet normal -0 0 1
    outer loop
      vertex -31 -1 4
      vertex -28.5 -6.25 4
      vertex -30.691 -0.951056 4
    endloop
  endfacet
  facet normal 0 0 1
    outer loop
      vertex -30 -9.99408 4
      vertex -30.5621 -9.94686 4
      vertex -30.1884 -9.99408 4
    endloop
  endfacet
  facet normal 0 0 1
    outer loop
      vertex -28.5 -6.25 4
      vertex -31 -1 4
      vertex -33 -7 4
    endloop
  endfacet
  facet normal 0 0 1
    outer loop
      vertex -28.5 -6.25 4
      vertex -30.9271 -9.85317 4
      vertex -30.5621 -9.94686 4
    endloop
  endfacet
  facet normal 0 0 1
    outer loop
      vertex -33 -7 4
      vertex -31 -1 4
      vertex -31.309 -0.951056 4
    endloop
  endfacet
  facet normal 0 0 1
    outer loop
      vertex -33 -7 4
      vertex -31.309 -0.951056 4
      vertex -31.5878 -0.809016 4
    endloop
  endfacet
  facet normal 0 0 1
    outer loop
      vertex -28.5 -6.25 4
      vertex -31.2773 -9.71448 4
      vertex -30.9271 -9.85317 4
    endloop
  endfacet
  facet normal 0 0 1
    outer loop
      vertex -33 -7 4
      vertex -31.5878 -0.809016 4
      vertex -31.809 -0.587785 4
    endloop
  endfacet
  facet normal 0 0 1
    outer loop
      vertex -28.5 -6.25 4
      vertex -31.6075 -9.53298 4
      vertex -31.2773 -9.71448 4
    endloop
  endfacet
  facet normal 0 0 1
    outer loop
      vertex -33 -7 4
      vertex -31.809 -0.587785 4
      vertex -31.9511 -0.309016 4
    endloop
  endfacet
  facet normal 0 0 1
    outer loop
      vertex -33 -7 4
      vertex -31.9511 -0.309016 4
      vertex -32 0 4
    endloop
  endfacet
  facet normal 0 0 1
    outer loop
      vertex -31.9511 0.309016 4
      vertex -33 7 4
      vertex -32 0 4
    endloop
  endfacet
  facet normal 0 0 1
    outer loop
      vertex -33 -7 4
      vertex -32 0 4
      vertex -33 7 4
    endloop
  endfacet
  facet normal 0 0 1
    outer loop
      vertex -33 7 4
      vertex -32.1869 9.05364 4
      vertex -32.4271 8.76336 4
    endloop
  endfacet
  facet normal 0 0 1
    outer loop
      vertex -28.5 -6.25 4
      vertex -31.9123 -9.31154 4
      vertex -31.6075 -9.53298 4
    endloop
  endfacet
  facet normal 0 0 1
    outer loop
      vertex -33 7 4
      vertex -32.4271 8.76336 4
      vertex -32.6289 8.44526 4
    endloop
  endfacet
  facet normal 0 0 1
    outer loop
      vertex -28.5 -6.25 4
      vertex -32.1869 -9.05364 4
      vertex -31.9123 -9.31154 4
    endloop
  endfacet
  facet normal 0 0 1
    outer loop
      vertex -33 7 4
      vertex -32.6289 8.44526 4
      vertex -32.7893 8.10437 4
    endloop
  endfacet
  facet normal 0 0 1
    outer loop
      vertex -28.5 -6.25 4
      vertex -32.4271 -8.76336 4
      vertex -32.1869 -9.05364 4
    endloop
  endfacet
  facet normal 0 0 1
    outer loop
      vertex -33 7 4
      vertex -32.7893 8.10437 4
      vertex -32.9058 7.74607 4
    endloop
  endfacet
  facet normal 0 0 1
    outer loop
      vertex -28.5 -6.25 4
      vertex -32.6289 -8.44526 4
      vertex -32.4271 -8.76336 4
    endloop
  endfacet
  facet normal 0 0 1
    outer loop
      vertex -33 7 4
      vertex -32.9058 7.74607 4
      vertex -32.9763 7.376 4
    endloop
  endfacet
  facet normal 0 0 1
    outer loop
      vertex -28.5 -6.25 4
      vertex -32.7893 -8.10437 4
      vertex -32.6289 -8.44526 4
    endloop
  endfacet
  facet normal 0 0 1
    outer loop
      vertex -28.5 -6.25 4
      vertex -32.9058 -7.74607 4
      vertex -32.7893 -8.10437 4
    endloop
  endfacet
  facet normal 0 0 1
    outer loop
      vertex -28.5 -6.25 4
      vertex -32.9763 -7.376 4
      vertex -32.9058 -7.74607 4
    endloop
  endfacet
  facet normal 0 0 1
    outer loop
      vertex -28.5 6.25 4
      vertex -30.0489 0.309016 4
      vertex -30 0 4
    endloop
  endfacet
  facet normal 0 0 1
    outer loop
      vertex -30.5621 9.94686 4
      vertex -30 9.99408 4
      vertex -30.1884 9.99408 4
    endloop
  endfacet
  facet normal 0 0 1
    outer loop
      vertex -28.5 6.25 4
      vertex -30.191 0.587785 4
      vertex -30.0489 0.309016 4
    endloop
  endfacet
  facet normal 0 0 1
    outer loop
      vertex -28.5 6.25 4
      vertex -30.4122 0.809016 4
      vertex -30.191 0.587785 4
    endloop
  endfacet
  facet normal -0 0 1
    outer loop
      vertex -30.9271 9.85317 4
      vertex -28.5 6.25 4
      vertex -30.5621 9.94686 4
    endloop
  endfacet
  facet normal 0 0 1
    outer loop
      vertex -28.5 6.25 4
      vertex -30.691 0.951056 4
      vertex -30.4122 0.809016 4
    endloop
  endfacet
  facet normal -0 0 1
    outer loop
      vertex -31.2773 9.71448 4
      vertex -28.5 6.25 4
      vertex -30.9271 9.85317 4
    endloop
  endfacet
  facet normal -0 0 1
    outer loop
      vertex -33 7 4
      vertex -28.5 6.25 4
      vertex -32.1869 9.05364 4
    endloop
  endfacet
  facet normal -0 0 1
    outer loop
      vertex -31.6075 9.53298 4
      vertex -28.5 6.25 4
      vertex -31.2773 9.71448 4
    endloop
  endfacet
  facet normal 0 0 1
    outer loop
      vertex -28.5 6.25 4
      vertex -31 1 4
      vertex -30.691 0.951056 4
    endloop
  endfacet
  facet normal 0 0 1
    outer loop
      vertex -33 7 4
      vertex -31 1 4
      vertex -28.5 6.25 4
    endloop
  endfacet
  facet normal -0 0 1
    outer loop
      vertex -31.9123 9.31154 4
      vertex -28.5 6.25 4
      vertex -31.6075 9.53298 4
    endloop
  endfacet
  facet normal 0 0 1
    outer loop
      vertex -31 1 4
      vertex -33 7 4
      vertex -31.309 0.951056 4
    endloop
  endfacet
  facet normal 0 0 1
    outer loop
      vertex -28.5 6.25 4
      vertex -31.9123 9.31154 4
      vertex -32.1869 9.05364 4
    endloop
  endfacet
  facet normal 0 0 1
    outer loop
      vertex -31.309 0.951056 4
      vertex -33 7 4
      vertex -31.5878 0.809016 4
    endloop
  endfacet
  facet normal 0 0 1
    outer loop
      vertex -31.5878 0.809016 4
      vertex -33 7 4
      vertex -31.809 0.587785 4
    endloop
  endfacet
  facet normal 0 0 1
    outer loop
      vertex -31.809 0.587785 4
      vertex -33 7 4
      vertex -31.9511 0.309016 4
    endloop
  endfacet
  facet normal 0 0 1
    outer loop
      vertex 7 1.5 4
      vertex -2.04894 0.309016 4
      vertex -2 0 4
    endloop
  endfacet
  facet normal 0 0 1
    outer loop
      vertex 7 1.5 4
      vertex -2.19098 0.587785 4
      vertex -2.04894 0.309016 4
    endloop
  endfacet
  facet normal 0 0 1
    outer loop
      vertex 7 1.5 4
      vertex -2.41221 0.809016 4
      vertex -2.19098 0.587785 4
    endloop
  endfacet
  facet normal 0 0 1
    outer loop
      vertex -2 10 4
      vertex -2.69098 0.951056 4
      vertex -2.41221 0.809016 4
    endloop
  endfacet
  facet normal -0 0 1
    outer loop
      vertex -5.5 6.25 4
      vertex -2.69098 0.951056 4
      vertex -2 10 4
    endloop
  endfacet
  facet normal 0 0 1
    outer loop
      vertex -2.69098 0.951056 4
      vertex -5.5 6.25 4
      vertex -3 1 4
    endloop
  endfacet
  facet normal 0 0 1
    outer loop
      vertex -3 1 4
      vertex -5.5 6.25 4
      vertex -3.30902 0.951056 4
    endloop
  endfacet
  facet normal 0 0 1
    outer loop
      vertex -3.30902 0.951056 4
      vertex -5.5 6.25 4
      vertex -3.58778 0.809016 4
    endloop
  endfacet
  facet normal 0 0 1
    outer loop
      vertex -3.58778 0.809016 4
      vertex -5.5 6.25 4
      vertex -3.80902 0.587785 4
    endloop
  endfacet
  facet normal 0 0 1
    outer loop
      vertex -3.95106 0.309016 4
      vertex -5.5 6.25 4
      vertex -4 0 4
    endloop
  endfacet
  facet normal 0 0 1
    outer loop
      vertex -3.80902 0.587785 4
      vertex -5.5 6.25 4
      vertex -3.95106 0.309016 4
    endloop
  endfacet
  facet normal -0 0 1
    outer loop
      vertex -30 10 4
      vertex -5.5 6.25 4
      vertex -2 10 4
    endloop
  endfacet
  facet normal -0 0 1
    outer loop
      vertex -30 9.99408 4
      vertex -28.5 6.25 4
      vertex -30 10 4
    endloop
  endfacet
  facet normal 0 0 1
    outer loop
      vertex -5.5 6.25 4
      vertex -30 10 4
      vertex -28.5 6.25 4
    endloop
  endfacet
  facet normal -0 0 1
    outer loop
      vertex 7 1.5 4
      vertex 40 -1.5 4
      vertex 40 1.5 4
    endloop
  endfacet
  facet normal 0 0 1
    outer loop
      vertex 7 1.5 4
      vertex 7 -1.5 4
      vertex 40 -1.5 4
    endloop
  endfacet
  facet normal 0 0 1
    outer loop
      vertex -2.41221 0.809016 4
      vertex 7 1.5 4
      vertex -2 10 4
    endloop
  endfacet
  facet normal 0 0 1
    outer loop
      vertex 7 1.5 4
      vertex -2 0 4
      vertex 7 -1.5 4
    endloop
  endfacet
  facet normal -0 0 1
    outer loop
      vertex -2.04894 -0.309016 4
      vertex 7 -1.5 4
      vertex -2 0 4
    endloop
  endfacet
  facet normal -0 0 1
    outer loop
      vertex -2.19098 -0.587785 4
      vertex 7 -1.5 4
      vertex -2.04894 -0.309016 4
    endloop
  endfacet
  facet normal -0 0 1
    outer loop
      vertex -2.41221 -0.809016 4
      vertex 7 -1.5 4
      vertex -2.19098 -0.587785 4
    endloop
  endfacet
  facet normal 0 0 1
    outer loop
      vertex 7 -1.5 4
      vertex -2.41221 -0.809016 4
      vertex -2 -10 4
    endloop
  endfacet
  facet normal -0 0 1
    outer loop
      vertex -2.69098 -0.951056 4
      vertex -2 -10 4
      vertex -2.41221 -0.809016 4
    endloop
  endfacet
  facet normal 0 0 1
    outer loop
      vertex -5.5 -6.25 4
      vertex -2.69098 -0.951056 4
      vertex -3 -1 4
    endloop
  endfacet
  facet normal 0 0 1
    outer loop
      vertex -5.5 -6.25 4
      vertex -3 -1 4
      vertex -3.30902 -0.951056 4
    endloop
  endfacet
  facet normal 0 0 1
    outer loop
      vertex -5.5 -6.25 4
      vertex -3.30902 -0.951056 4
      vertex -3.58778 -0.809016 4
    endloop
  endfacet
  facet normal 0 0 1
    outer loop
      vertex -5.5 -6.25 4
      vertex -3.58778 -0.809016 4
      vertex -3.80902 -0.587785 4
    endloop
  endfacet
  facet normal 0 0 1
    outer loop
      vertex -5.5 -6.25 4
      vertex -3.80902 -0.587785 4
      vertex -3.95106 -0.309016 4
    endloop
  endfacet
  facet normal 0 0 1
    outer loop
      vertex -5.5 -6.25 4
      vertex -4 0 4
      vertex -5.5 6.25 4
    endloop
  endfacet
  facet normal 0 0 1
    outer loop
      vertex -4 0 4
      vertex -5.5 -6.25 4
      vertex -3.95106 -0.309016 4
    endloop
  endfacet
  facet normal 0 0 1
    outer loop
      vertex -2.69098 -0.951056 4
      vertex -5.5 -6.25 4
      vertex -2 -10 4
    endloop
  endfacet
  facet normal 0 0 1
    outer loop
      vertex -30 -10 4
      vertex -5.5 -6.25 4
      vertex -28.5 -6.25 4
    endloop
  endfacet
  facet normal -0 0 1
    outer loop
      vertex -30.5621 9.94686 4
      vertex -28.5 6.25 4
      vertex -30 9.99408 4
    endloop
  endfacet
  facet normal 0 0 1
    outer loop
      vertex -28.5 6.25 4
      vertex -30 0 4
      vertex -28.5 -6.25 4
    endloop
  endfacet
  facet normal -0 0 1
    outer loop
      vertex -30.0489 -0.309016 4
      vertex -28.5 -6.25 4
      vertex -30 0 4
    endloop
  endfacet
  facet normal 0 0 1
    outer loop
      vertex -30 -10 4
      vertex -28.5 -6.25 4
      vertex -30 -9.99408 4
    endloop
  endfacet
  facet normal 0 0 1
    outer loop
      vertex -5.5 -6.25 4
      vertex -30 -10 4
      vertex -2 -10 4
    endloop
  endfacet
  facet normal -0.481754 0.876307 0
    outer loop
      vertex -31.2773 9.71448 0
      vertex -31.6075 9.53298 4
      vertex -31.2773 9.71448 4
    endloop
  endfacet
  facet normal -0.481754 0.876307 0
    outer loop
      vertex -31.6075 9.53298 4
      vertex -31.2773 9.71448 0
      vertex -31.6075 9.53298 0
    endloop
  endfacet
  facet normal -0.587783 0.809019 0
    outer loop
      vertex -31.6075 9.53298 0
      vertex -31.9123 9.31154 4
      vertex -31.6075 9.53298 4
    endloop
  endfacet
  facet normal -0.587783 0.809019 0
    outer loop
      vertex -31.9123 9.31154 4
      vertex -31.6075 9.53298 0
      vertex -31.9123 9.31154 0
    endloop
  endfacet
  facet normal -0.125333 0.992115 0
    outer loop
      vertex -30.1884 9.99408 0
      vertex -30.5621 9.94686 4
      vertex -30.1884 9.99408 4
    endloop
  endfacet
  facet normal -0.125333 0.992115 0
    outer loop
      vertex -30.5621 9.94686 4
      vertex -30.1884 9.99408 0
      vertex -30.5621 9.94686 0
    endloop
  endfacet
  facet normal 0 0 -1
    outer loop
      vertex -30.191 0.587785 0
      vertex -28.5 6.25 0
      vertex -30.0489 0.309016 0
    endloop
  endfacet
  facet normal 0 0 -1
    outer loop
      vertex -30.4122 0.809016 0
      vertex -28.5 6.25 0
      vertex -30.191 0.587785 0
    endloop
  endfacet
  facet normal 0 0 -1
    outer loop
      vertex -30.691 0.951056 0
      vertex -28.5 6.25 0
      vertex -30.4122 0.809016 0
    endloop
  endfacet
  facet normal 0 -0 -1
    outer loop
      vertex -32.9763 7.376 0
      vertex -28.5 6.25 0
      vertex -33 7 0
    endloop
  endfacet
  facet normal 0 0 -1
    outer loop
      vertex -28.5 6.25 0
      vertex -30.5621 9.94686 0
      vertex -30 9.99408 0
    endloop
  endfacet
  facet normal 0 0 -1
    outer loop
      vertex -31 1 0
      vertex -28.5 6.25 0
      vertex -30.691 0.951056 0
    endloop
  endfacet
  facet normal -0 0 -1
    outer loop
      vertex -30 9.99408 0
      vertex -30.5621 9.94686 0
      vertex -30.1884 9.99408 0
    endloop
  endfacet
  facet normal -0 0 -1
    outer loop
      vertex -28.5 6.25 0
      vertex -31 1 0
      vertex -33 7 0
    endloop
  endfacet
  facet normal 0 0 -1
    outer loop
      vertex -28.5 6.25 0
      vertex -30.9271 9.85317 0
      vertex -30.5621 9.94686 0
    endloop
  endfacet
  facet normal 0 0 -1
    outer loop
      vertex -33 7 0
      vertex -31 1 0
      vertex -31.309 0.951056 0
    endloop
  endfacet
  facet normal 0 0 -1
    outer loop
      vertex -33 7 0
      vertex -31.309 0.951056 0
      vertex -31.5878 0.809016 0
    endloop
  endfacet
  facet normal 0 0 -1
    outer loop
      vertex -28.5 6.25 0
      vertex -31.2773 9.71448 0
      vertex -30.9271 9.85317 0
    endloop
  endfacet
  facet normal 0 0 -1
    outer loop
      vertex -33 7 0
      vertex -31.5878 0.809016 0
      vertex -31.809 0.587785 0
    endloop
  endfacet
  facet normal 0 0 -1
    outer loop
      vertex -28.5 6.25 0
      vertex -31.6075 9.53298 0
      vertex -31.2773 9.71448 0
    endloop
  endfacet
  facet normal 0 0 -1
    outer loop
      vertex -33 7 0
      vertex -31.809 0.587785 0
      vertex -31.9511 0.309016 0
    endloop
  endfacet
  facet normal 0 0 -1
    outer loop
      vertex -33 7 0
      vertex -31.9511 0.309016 0
      vertex -32 0 0
    endloop
  endfacet
  facet normal -0 0 -1
    outer loop
      vertex -31.9511 -0.309016 0
      vertex -33 -7 0
      vertex -32 0 0
    endloop
  endfacet
  facet normal 0 0 -1
    outer loop
      vertex -33 7 0
      vertex -32 0 0
      vertex -33 -7 0
    endloop
  endfacet
  facet normal 0 0 -1
    outer loop
      vertex -33 -7 0
      vertex -32.1869 -9.05364 0
      vertex -32.4271 -8.76336 0
    endloop
  endfacet
  facet normal 0 0 -1
    outer loop
      vertex -28.5 6.25 0
      vertex -31.9123 9.31154 0
      vertex -31.6075 9.53298 0
    endloop
  endfacet
  facet normal 0 0 -1
    outer loop
      vertex -33 -7 0
      vertex -32.4271 -8.76336 0
      vertex -32.6289 -8.44526 0
    endloop
  endfacet
  facet normal 0 0 -1
    outer loop
      vertex -28.5 6.25 0
      vertex -32.1869 9.05364 0
      vertex -31.9123 9.31154 0
    endloop
  endfacet
  facet normal 0 0 -1
    outer loop
      vertex -33 -7 0
      vertex -32.6289 -8.44526 0
      vertex -32.7893 -8.10437 0
    endloop
  endfacet
  facet normal 0 0 -1
    outer loop
      vertex -28.5 6.25 0
      vertex -32.4271 8.76336 0
      vertex -32.1869 9.05364 0
    endloop
  endfacet
  facet normal 0 0 -1
    outer loop
      vertex -33 -7 0
      vertex -32.7893 -8.10437 0
      vertex -32.9058 -7.74607 0
    endloop
  endfacet
  facet normal 0 0 -1
    outer loop
      vertex -28.5 6.25 0
      vertex -32.6289 8.44526 0
      vertex -32.4271 8.76336 0
    endloop
  endfacet
  facet normal 0 0 -1
    outer loop
      vertex -33 -7 0
      vertex -32.9058 -7.74607 0
      vertex -32.9763 -7.376 0
    endloop
  endfacet
  facet normal 0 0 -1
    outer loop
      vertex -28.5 6.25 0
      vertex -32.7893 8.10437 0
      vertex -32.6289 8.44526 0
    endloop
  endfacet
  facet normal 0 0 -1
    outer loop
      vertex -28.5 6.25 0
      vertex -32.9058 7.74607 0
      vertex -32.7893 8.10437 0
    endloop
  endfacet
  facet normal 0 0 -1
    outer loop
      vertex -28.5 6.25 0
      vertex -32.9763 7.376 0
      vertex -32.9058 7.74607 0
    endloop
  endfacet
  facet normal 0 0 -1
    outer loop
      vertex -28.5 -6.25 0
      vertex -30.0489 -0.309016 0
      vertex -30 0 0
    endloop
  endfacet
  facet normal 0 0 -1
    outer loop
      vertex -30.5621 -9.94686 0
      vertex -30 -9.99408 0
      vertex -30.1884 -9.99408 0
    endloop
  endfacet
  facet normal 0 0 -1
    outer loop
      vertex -28.5 -6.25 0
      vertex -30.191 -0.587785 0
      vertex -30.0489 -0.309016 0
    endloop
  endfacet
  facet normal 0 0 -1
    outer loop
      vertex -28.5 -6.25 0
      vertex -30.4122 -0.809016 0
      vertex -30.191 -0.587785 0
    endloop
  endfacet
  facet normal 0 0 -1
    outer loop
      vertex -30.9271 -9.85317 0
      vertex -28.5 -6.25 0
      vertex -30.5621 -9.94686 0
    endloop
  endfacet
  facet normal 0 0 -1
    outer loop
      vertex -28.5 -6.25 0
      vertex -30.691 -0.951056 0
      vertex -30.4122 -0.809016 0
    endloop
  endfacet
  facet normal 0 0 -1
    outer loop
      vertex -31.2773 -9.71448 0
      vertex -28.5 -6.25 0
      vertex -30.9271 -9.85317 0
    endloop
  endfacet
  facet normal 0 0 -1
    outer loop
      vertex -33 -7 0
      vertex -28.5 -6.25 0
      vertex -32.1869 -9.05364 0
    endloop
  endfacet
  facet normal 0 0 -1
    outer loop
      vertex -31.6075 -9.53298 0
      vertex -28.5 -6.25 0
      vertex -31.2773 -9.71448 0
    endloop
  endfacet
  facet normal 0 0 -1
    outer loop
      vertex -28.5 -6.25 0
      vertex -31 -1 0
      vertex -30.691 -0.951056 0
    endloop
  endfacet
  facet normal 0 0 -1
    outer loop
      vertex -33 -7 0
      vertex -31 -1 0
      vertex -28.5 -6.25 0
    endloop
  endfacet
  facet normal 0 0 -1
    outer loop
      vertex -31.9123 -9.31154 0
      vertex -28.5 -6.25 0
      vertex -31.6075 -9.53298 0
    endloop
  endfacet
  facet normal -0 0 -1
    outer loop
      vertex -31 -1 0
      vertex -33 -7 0
      vertex -31.309 -0.951056 0
    endloop
  endfacet
  facet normal 0 0 -1
    outer loop
      vertex -28.5 -6.25 0
      vertex -31.9123 -9.31154 0
      vertex -32.1869 -9.05364 0
    endloop
  endfacet
  facet normal -0 0 -1
    outer loop
      vertex -31.309 -0.951056 0
      vertex -33 -7 0
      vertex -31.5878 -0.809016 0
    endloop
  endfacet
  facet normal -0 0 -1
    outer loop
      vertex -31.5878 -0.809016 0
      vertex -33 -7 0
      vertex -31.809 -0.587785 0
    endloop
  endfacet
  facet normal -0 0 -1
    outer loop
      vertex -31.809 -0.587785 0
      vertex -33 -7 0
      vertex -31.9511 -0.309016 0
    endloop
  endfacet
  facet normal 0 0 -1
    outer loop
      vertex 7 -1.5 0
      vertex -2.04894 -0.309016 0
      vertex -2 0 0
    endloop
  endfacet
  facet normal 0 0 -1
    outer loop
      vertex 7 -1.5 0
      vertex -2.19098 -0.587785 0
      vertex -2.04894 -0.309016 0
    endloop
  endfacet
  facet normal 0 0 -1
    outer loop
      vertex 7 -1.5 0
      vertex -2.41221 -0.809016 0
      vertex -2.19098 -0.587785 0
    endloop
  endfacet
  facet normal 0 0 -1
    outer loop
      vertex -2 -10 0
      vertex -2.69098 -0.951056 0
      vertex -2.41221 -0.809016 0
    endloop
  endfacet
  facet normal 0 0 -1
    outer loop
      vertex -5.5 -6.25 0
      vertex -2.69098 -0.951056 0
      vertex -2 -10 0
    endloop
  endfacet
  facet normal 0 0 -1
    outer loop
      vertex -2.69098 -0.951056 0
      vertex -5.5 -6.25 0
      vertex -3 -1 0
    endloop
  endfacet
  facet normal -0 0 -1
    outer loop
      vertex -3 -1 0
      vertex -5.5 -6.25 0
      vertex -3.30902 -0.951056 0
    endloop
  endfacet
  facet normal -0 0 -1
    outer loop
      vertex -3.30902 -0.951056 0
      vertex -5.5 -6.25 0
      vertex -3.58778 -0.809016 0
    endloop
  endfacet
  facet normal -0 0 -1
    outer loop
      vertex -3.58778 -0.809016 0
      vertex -5.5 -6.25 0
      vertex -3.80902 -0.587785 0
    endloop
  endfacet
  facet normal -0 0 -1
    outer loop
      vertex -3.95106 -0.309016 0
      vertex -5.5 -6.25 0
      vertex -4 0 0
    endloop
  endfacet
  facet normal -0 0 -1
    outer loop
      vertex -3.80902 -0.587785 0
      vertex -5.5 -6.25 0
      vertex -3.95106 -0.309016 0
    endloop
  endfacet
  facet normal 0 0 -1
    outer loop
      vertex -30 -10 0
      vertex -5.5 -6.25 0
      vertex -2 -10 0
    endloop
  endfacet
  facet normal 0 0 -1
    outer loop
      vertex -30 -9.99408 0
      vertex -28.5 -6.25 0
      vertex -30 -10 0
    endloop
  endfacet
  facet normal -0 0 -1
    outer loop
      vertex -5.5 -6.25 0
      vertex -30 -10 0
      vertex -28.5 -6.25 0
    endloop
  endfacet
  facet normal 0 0 -1
    outer loop
      vertex 7 -1.5 0
      vertex 40 1.5 0
      vertex 40 -1.5 0
    endloop
  endfacet
  facet normal 0 0 -1
    outer loop
      vertex 7 -1.5 0
      vertex 7 1.5 0
      vertex 40 1.5 0
    endloop
  endfacet
  facet normal 0 0 -1
    outer loop
      vertex -2.41221 -0.809016 0
      vertex 7 -1.5 0
      vertex -2 -10 0
    endloop
  endfacet
  facet normal 0 0 -1
    outer loop
      vertex 7 -1.5 0
      vertex -2 0 0
      vertex 7 1.5 0
    endloop
  endfacet
  facet normal 0 0 -1
    outer loop
      vertex -2.04894 0.309016 0
      vertex 7 1.5 0
      vertex -2 0 0
    endloop
  endfacet
  facet normal 0 0 -1
    outer loop
      vertex -2.19098 0.587785 0
      vertex 7 1.5 0
      vertex -2.04894 0.309016 0
    endloop
  endfacet
  facet normal 0 0 -1
    outer loop
      vertex -2.41221 0.809016 0
      vertex 7 1.5 0
      vertex -2.19098 0.587785 0
    endloop
  endfacet
  facet normal -0 0 -1
    outer loop
      vertex 7 1.5 0
      vertex -2.41221 0.809016 0
      vertex -2 10 0
    endloop
  endfacet
  facet normal 0 0 -1
    outer loop
      vertex -2.69098 0.951056 0
      vertex -2 10 0
      vertex -2.41221 0.809016 0
    endloop
  endfacet
  facet normal 0 0 -1
    outer loop
      vertex -5.5 6.25 0
      vertex -2.69098 0.951056 0
      vertex -3 1 0
    endloop
  endfacet
  facet normal 0 0 -1
    outer loop
      vertex -5.5 6.25 0
      vertex -3 1 0
      vertex -3.30902 0.951056 0
    endloop
  endfacet
  facet normal 0 0 -1
    outer loop
      vertex -5.5 6.25 0
      vertex -3.30902 0.951056 0
      vertex -3.58778 0.809016 0
    endloop
  endfacet
  facet normal 0 0 -1
    outer loop
      vertex -5.5 6.25 0
      vertex -3.58778 0.809016 0
      vertex -3.80902 0.587785 0
    endloop
  endfacet
  facet normal 0 0 -1
    outer loop
      vertex -5.5 6.25 0
      vertex -3.80902 0.587785 0
      vertex -3.95106 0.309016 0
    endloop
  endfacet
  facet normal 0 0 -1
    outer loop
      vertex -5.5 6.25 0
      vertex -4 0 0
      vertex -5.5 -6.25 0
    endloop
  endfacet
  facet normal 0 0 -1
    outer loop
      vertex -4 0 0
      vertex -5.5 6.25 0
      vertex -3.95106 0.309016 0
    endloop
  endfacet
  facet normal 0 0 -1
    outer loop
      vertex -2.69098 0.951056 0
      vertex -5.5 6.25 0
      vertex -2 10 0
    endloop
  endfacet
  facet normal 0 0 -1
    outer loop
      vertex -30 10 0
      vertex -5.5 6.25 0
      vertex -28.5 6.25 0
    endloop
  endfacet
  facet normal 0 0 -1
    outer loop
      vertex -30.5621 -9.94686 0
      vertex -28.5 -6.25 0
      vertex -30 -9.99408 0
    endloop
  endfacet
  facet normal 0 0 -1
    outer loop
      vertex -28.5 -6.25 0
      vertex -30 0 0
      vertex -28.5 6.25 0
    endloop
  endfacet
  facet normal 0 0 -1
    outer loop
      vertex -30.0489 0.309016 0
      vertex -28.5 6.25 0
      vertex -30 0 0
    endloop
  endfacet
  facet normal 0 0 -1
    outer loop
      vertex -30 10 0
      vertex -28.5 6.25 0
      vertex -30 9.99408 0
    endloop
  endfacet
  facet normal 0 0 -1
    outer loop
      vertex -5.5 6.25 0
      vertex -30 10 0
      vertex -2 10 0
    endloop
  endfacet
  facet normal 0 -1 0
    outer loop
      vertex -30.1884 -9.99408 0
      vertex -30 -9.99408 4
      vertex -30.1884 -9.99408 4
    endloop
  endfacet
  facet normal 0 -1 -0
    outer loop
      vertex -30 -9.99408 4
      vertex -30.1884 -9.99408 0
      vertex -30 -9.99408 0
    endloop
  endfacet
  facet normal -0.904829 -0.425776 0
    outer loop
      vertex -32.6289 -8.44526 0
      vertex -32.7893 -8.10437 4
      vertex -32.7893 -8.10437 0
    endloop
  endfacet
  facet normal -0.904829 -0.425776 0
    outer loop
      vertex -32.7893 -8.10437 4
      vertex -32.6289 -8.44526 0
      vertex -32.6289 -8.44526 4
    endloop
  endfacet
  facet normal -0.368128 -0.929775 0
    outer loop
      vertex -31.2773 -9.71448 0
      vertex -30.9271 -9.85317 4
      vertex -31.2773 -9.71448 4
    endloop
  endfacet
  facet normal -0.368128 -0.929775 -0
    outer loop
      vertex -30.9271 -9.85317 4
      vertex -31.2773 -9.71448 0
      vertex -30.9271 -9.85317 0
    endloop
  endfacet
  facet normal -0.684549 -0.728967 0
    outer loop
      vertex -32.1869 -9.05364 0
      vertex -31.9123 -9.31154 4
      vertex -32.1869 -9.05364 4
    endloop
  endfacet
  facet normal -0.684549 -0.728967 -0
    outer loop
      vertex -31.9123 -9.31154 4
      vertex -32.1869 -9.05364 0
      vertex -31.9123 -9.31154 0
    endloop
  endfacet
  facet normal -0.951056 -0.309019 0
    outer loop
      vertex -32.7893 -8.10437 0
      vertex -32.9058 -7.74607 4
      vertex -32.9058 -7.74607 0
    endloop
  endfacet
  facet normal -0.951056 -0.309019 0
    outer loop
      vertex -32.9058 -7.74607 4
      vertex -32.7893 -8.10437 0
      vertex -32.7893 -8.10437 4
    endloop
  endfacet
  facet normal -0.125333 -0.992115 0
    outer loop
      vertex -30.5621 -9.94686 0
      vertex -30.1884 -9.99408 4
      vertex -30.5621 -9.94686 4
    endloop
  endfacet
  facet normal -0.125333 -0.992115 -0
    outer loop
      vertex -30.1884 -9.99408 4
      vertex -30.5621 -9.94686 0
      vertex -30.1884 -9.99408 0
    endloop
  endfacet
  facet normal -0.587783 -0.809019 0
    outer loop
      vertex -31.9123 -9.31154 0
      vertex -31.6075 -9.53298 4
      vertex -31.9123 -9.31154 4
    endloop
  endfacet
  facet normal -0.587783 -0.809019 -0
    outer loop
      vertex -31.6075 -9.53298 4
      vertex -31.9123 -9.31154 0
      vertex -31.6075 -9.53298 0
    endloop
  endfacet
  facet normal -0.248688 -0.968584 0
    outer loop
      vertex -30.9271 -9.85317 0
      vertex -30.5621 -9.94686 4
      vertex -30.9271 -9.85317 4
    endloop
  endfacet
  facet normal -0.248688 -0.968584 -0
    outer loop
      vertex -30.5621 -9.94686 4
      vertex -30.9271 -9.85317 0
      vertex -30.5621 -9.94686 0
    endloop
  endfacet
  facet normal -0.844326 -0.535829 0
    outer loop
      vertex -32.4271 -8.76336 0
      vertex -32.6289 -8.44526 4
      vertex -32.6289 -8.44526 0
    endloop
  endfacet
  facet normal -0.844326 -0.535829 0
    outer loop
      vertex -32.6289 -8.44526 4
      vertex -32.4271 -8.76336 0
      vertex -32.4271 -8.76336 4
    endloop
  endfacet
  facet normal -0.982289 -0.187372 0
    outer loop
      vertex -32.9058 -7.74607 0
      vertex -32.9763 -7.376 4
      vertex -32.9763 -7.376 0
    endloop
  endfacet
  facet normal -0.982289 -0.187372 0
    outer loop
      vertex -32.9763 -7.376 4
      vertex -32.9058 -7.74607 0
      vertex -32.9058 -7.74607 4
    endloop
  endfacet
  facet normal -0.998026 -0.0627981 0
    outer loop
      vertex -32.9763 -7.376 0
      vertex -33 -7 4
      vertex -33 -7 0
    endloop
  endfacet
  facet normal -0.998026 -0.0627981 0
    outer loop
      vertex -33 -7 4
      vertex -32.9763 -7.376 0
      vertex -32.9763 -7.376 4
    endloop
  endfacet
  facet normal -0.481754 -0.876307 0
    outer loop
      vertex -31.6075 -9.53298 0
      vertex -31.2773 -9.71448 4
      vertex -31.6075 -9.53298 4
    endloop
  endfacet
  facet normal -0.481754 -0.876307 -0
    outer loop
      vertex -31.2773 -9.71448 4
      vertex -31.6075 -9.53298 0
      vertex -31.2773 -9.71448 0
    endloop
  endfacet
  facet normal -0.770511 -0.637427 0
    outer loop
      vertex -32.1869 -9.05364 0
      vertex -32.4271 -8.76336 4
      vertex -32.4271 -8.76336 0
    endloop
  endfacet
  facet normal -0.770511 -0.637427 0
    outer loop
      vertex -32.4271 -8.76336 4
      vertex -32.1869 -9.05364 0
      vertex -32.1869 -9.05364 4
    endloop
  endfacet
  facet normal -1 0 0
    outer loop
      vertex -30 -10 0
      vertex -30 -9.99408 4
      vertex -30 -9.99408 0
    endloop
  endfacet
  facet normal -1 -0 0
    outer loop
      vertex -30 -9.99408 4
      vertex -30 -10 0
      vertex -30 -10 4
    endloop
  endfacet
  facet normal -1 0 0
    outer loop
      vertex -30 9.99408 0
      vertex -30 10 4
      vertex -30 10 0
    endloop
  endfacet
  facet normal -1 -0 0
    outer loop
      vertex -30 10 4
      vertex -30 9.99408 0
      vertex -30 9.99408 4
    endloop
  endfacet
  facet normal 0 -1 0
    outer loop
      vertex -30 -10 0
      vertex -2 -10 4
      vertex -30 -10 4
    endloop
  endfacet
  facet normal 0 -1 -0
    outer loop
      vertex -2 -10 4
      vertex -30 -10 0
      vertex -2 -10 0
    endloop
  endfacet
  facet normal 0 1 -0
    outer loop
      vertex -2 10 0
      vertex -30 10 4
      vertex -2 10 4
    endloop
  endfacet
  facet normal 0 1 0
    outer loop
      vertex -30 10 4
      vertex -2 10 0
      vertex -30 10 0
    endloop
  endfacet
  facet normal 0.686624 0.727013 -0
    outer loop
      vertex 7 1.5 0
      vertex -2 10 4
      vertex 7 1.5 4
    endloop
  endfacet
  facet normal 0.686624 0.727013 0
    outer loop
      vertex -2 10 4
      vertex 7 1.5 0
      vertex -2 10 0
    endloop
  endfacet
  facet normal 0.686624 -0.727013 0
    outer loop
      vertex -2 -10 0
      vertex 7 -1.5 4
      vertex -2 -10 4
    endloop
  endfacet
  facet normal 0.686624 -0.727013 0
    outer loop
      vertex 7 -1.5 4
      vertex -2 -10 0
      vertex 7 -1.5 0
    endloop
  endfacet
  facet normal 1 -0 0
    outer loop
      vertex 40 -1.5 4
      vertex 40 1.5 0
      vertex 40 1.5 4
    endloop
  endfacet
  facet normal 1 0 0
    outer loop
      vertex 40 1.5 0
      vertex 40 -1.5 4
      vertex 40 -1.5 0
    endloop
  endfacet
  facet normal 0 1 -0
    outer loop
      vertex 40 1.5 0
      vertex 7 1.5 4
      vertex 40 1.5 4
    endloop
  endfacet
  facet normal 0 1 0
    outer loop
      vertex 7 1.5 4
      vertex 40 1.5 0
      vertex 7 1.5 0
    endloop
  endfacet
  facet normal 0 -1 0
    outer loop
      vertex 7 -1.5 0
      vertex 40 -1.5 4
      vertex 7 -1.5 4
    endloop
  endfacet
  facet normal 0 -1 -0
    outer loop
      vertex 40 -1.5 4
      vertex 7 -1.5 0
      vertex 40 -1.5 0
    endloop
  endfacet
  facet normal -1 0 0
    outer loop
      vertex -33 -7 0
      vertex -33 7 4
      vertex -33 7 0
    endloop
  endfacet
  facet normal -1 -0 0
    outer loop
      vertex -33 7 4
      vertex -33 -7 0
      vertex -33 -7 4
    endloop
  endfacet
  facet normal -0.987689 -0.156432 0
    outer loop
      vertex -2 0 0
      vertex -2.04894 0.309016 4
      vertex -2.04894 0.309016 0
    endloop
  endfacet
  facet normal -0.987689 -0.156432 0
    outer loop
      vertex -2.04894 0.309016 4
      vertex -2 0 0
      vertex -2 0 4
    endloop
  endfacet
  facet normal 0.987688 -0.156435 0
    outer loop
      vertex -4 0 4
      vertex -3.95106 0.309016 0
      vertex -3.95106 0.309016 4
    endloop
  endfacet
  facet normal 0.987688 -0.156435 0
    outer loop
      vertex -3.95106 0.309016 0
      vertex -4 0 4
      vertex -4 0 0
    endloop
  endfacet
  facet normal -0.156434 -0.987688 0
    outer loop
      vertex -3 1 0
      vertex -2.69098 0.951056 4
      vertex -3 1 4
    endloop
  endfacet
  facet normal -0.156434 -0.987688 -0
    outer loop
      vertex -2.69098 0.951056 4
      vertex -3 1 0
      vertex -2.69098 0.951056 0
    endloop
  endfacet
  facet normal 0.156435 0.987688 -0
    outer loop
      vertex -3 -1 0
      vertex -3.30902 -0.951056 4
      vertex -3 -1 4
    endloop
  endfacet
  facet normal 0.156435 0.987688 0
    outer loop
      vertex -3.30902 -0.951056 4
      vertex -3 -1 0
      vertex -3.30902 -0.951056 0
    endloop
  endfacet
  facet normal -0.707107 -0.707107 0
    outer loop
      vertex -2.19098 0.587785 0
      vertex -2.41221 0.809016 4
      vertex -2.41221 0.809016 0
    endloop
  endfacet
  facet normal -0.707107 -0.707107 0
    outer loop
      vertex -2.41221 0.809016 4
      vertex -2.19098 0.587785 0
      vertex -2.19098 0.587785 4
    endloop
  endfacet
  facet normal -0.891006 -0.453992 0
    outer loop
      vertex -2.04894 0.309016 0
      vertex -2.19098 0.587785 4
      vertex -2.19098 0.587785 0
    endloop
  endfacet
  facet normal -0.891006 -0.453992 0
    outer loop
      vertex -2.19098 0.587785 4
      vertex -2.04894 0.309016 0
      vertex -2.04894 0.309016 4
    endloop
  endfacet
  facet normal -0.453992 -0.891006 0
    outer loop
      vertex -2.69098 0.951056 0
      vertex -2.41221 0.809016 4
      vertex -2.69098 0.951056 4
    endloop
  endfacet
  facet normal -0.453992 -0.891006 -0
    outer loop
      vertex -2.41221 0.809016 4
      vertex -2.69098 0.951056 0
      vertex -2.41221 0.809016 0
    endloop
  endfacet
  facet normal 0.453992 -0.891006 0
    outer loop
      vertex -3.58778 0.809016 0
      vertex -3.30902 0.951056 4
      vertex -3.58778 0.809016 4
    endloop
  endfacet
  facet normal 0.453992 -0.891006 0
    outer loop
      vertex -3.30902 0.951056 4
      vertex -3.58778 0.809016 0
      vertex -3.30902 0.951056 0
    endloop
  endfacet
  facet normal 0.156435 -0.987688 0
    outer loop
      vertex -3.30902 0.951056 0
      vertex -3 1 4
      vertex -3.30902 0.951056 4
    endloop
  endfacet
  facet normal 0.156435 -0.987688 0
    outer loop
      vertex -3 1 4
      vertex -3.30902 0.951056 0
      vertex -3 1 0
    endloop
  endfacet
  facet normal -0.156434 0.987688 0
    outer loop
      vertex -2.69098 -0.951056 0
      vertex -3 -1 4
      vertex -2.69098 -0.951056 4
    endloop
  endfacet
  facet normal -0.156434 0.987688 0
    outer loop
      vertex -3 -1 4
      vertex -2.69098 -0.951056 0
      vertex -3 -1 0
    endloop
  endfacet
  facet normal -0.891006 0.453992 0
    outer loop
      vertex -2.19098 -0.587785 0
      vertex -2.04894 -0.309016 4
      vertex -2.04894 -0.309016 0
    endloop
  endfacet
  facet normal -0.891006 0.453992 0
    outer loop
      vertex -2.04894 -0.309016 4
      vertex -2.19098 -0.587785 0
      vertex -2.19098 -0.587785 4
    endloop
  endfacet
  facet normal 0.987688 0.156435 0
    outer loop
      vertex -3.95106 -0.309016 4
      vertex -4 0 0
      vertex -4 0 4
    endloop
  endfacet
  facet normal 0.987688 0.156435 0
    outer loop
      vertex -4 0 0
      vertex -3.95106 -0.309016 4
      vertex -3.95106 -0.309016 0
    endloop
  endfacet
  facet normal 0.707107 -0.707107 0
    outer loop
      vertex -3.80902 0.587785 4
      vertex -3.58778 0.809016 0
      vertex -3.58778 0.809016 4
    endloop
  endfacet
  facet normal 0.707107 -0.707107 0
    outer loop
      vertex -3.58778 0.809016 0
      vertex -3.80902 0.587785 4
      vertex -3.80902 0.587785 0
    endloop
  endfacet
  facet normal 0.891006 -0.453992 0
    outer loop
      vertex -3.95106 0.309016 4
      vertex -3.80902 0.587785 0
      vertex -3.80902 0.587785 4
    endloop
  endfacet
  facet normal 0.891006 -0.453992 0
    outer loop
      vertex -3.80902 0.587785 0
      vertex -3.95106 0.309016 4
      vertex -3.95106 0.309016 0
    endloop
  endfacet
  facet normal -0.987689 0.156432 0
    outer loop
      vertex -2.04894 -0.309016 0
      vertex -2 0 4
      vertex -2 0 0
    endloop
  endfacet
  facet normal -0.987689 0.156432 0
    outer loop
      vertex -2 0 4
      vertex -2.04894 -0.309016 0
      vertex -2.04894 -0.309016 4
    endloop
  endfacet
  facet normal -0.453992 0.891006 0
    outer loop
      vertex -2.41221 -0.809016 0
      vertex -2.69098 -0.951056 4
      vertex -2.41221 -0.809016 4
    endloop
  endfacet
  facet normal -0.453992 0.891006 0
    outer loop
      vertex -2.69098 -0.951056 4
      vertex -2.41221 -0.809016 0
      vertex -2.69098 -0.951056 0
    endloop
  endfacet
  facet normal 0.707107 0.707107 0
    outer loop
      vertex -3.58778 -0.809016 4
      vertex -3.80902 -0.587785 0
      vertex -3.80902 -0.587785 4
    endloop
  endfacet
  facet normal 0.707107 0.707107 0
    outer loop
      vertex -3.80902 -0.587785 0
      vertex -3.58778 -0.809016 4
      vertex -3.58778 -0.809016 0
    endloop
  endfacet
  facet normal 0.891006 0.453992 0
    outer loop
      vertex -3.80902 -0.587785 4
      vertex -3.95106 -0.309016 0
      vertex -3.95106 -0.309016 4
    endloop
  endfacet
  facet normal 0.891006 0.453992 0
    outer loop
      vertex -3.95106 -0.309016 0
      vertex -3.80902 -0.587785 4
      vertex -3.80902 -0.587785 0
    endloop
  endfacet
  facet normal -0.707107 0.707107 0
    outer loop
      vertex -2.41221 -0.809016 0
      vertex -2.19098 -0.587785 4
      vertex -2.19098 -0.587785 0
    endloop
  endfacet
  facet normal -0.707107 0.707107 0
    outer loop
      vertex -2.19098 -0.587785 4
      vertex -2.41221 -0.809016 0
      vertex -2.41221 -0.809016 4
    endloop
  endfacet
  facet normal 0.453992 0.891006 -0
    outer loop
      vertex -3.30902 -0.951056 0
      vertex -3.58778 -0.809016 4
      vertex -3.30902 -0.951056 4
    endloop
  endfacet
  facet normal 0.453992 0.891006 0
    outer loop
      vertex -3.58778 -0.809016 4
      vertex -3.30902 -0.951056 0
      vertex -3.58778 -0.809016 0
    endloop
  endfacet
  facet normal -0.987689 -0.156432 0
    outer loop
      vertex -30 0 0
      vertex -30.0489 0.309016 4
      vertex -30.0489 0.309016 0
    endloop
  endfacet
  facet normal -0.987689 -0.156432 0
    outer loop
      vertex -30.0489 0.309016 4
      vertex -30 0 0
      vertex -30 0 4
    endloop
  endfacet
  facet normal 0.987689 -0.156432 0
    outer loop
      vertex -32 0 4
      vertex -31.9511 0.309016 0
      vertex -31.9511 0.309016 4
    endloop
  endfacet
  facet normal 0.987689 -0.156432 0
    outer loop
      vertex -31.9511 0.309016 0
      vertex -32 0 4
      vertex -32 0 0
    endloop
  endfacet
  facet normal -0.156434 -0.987688 0
    outer loop
      vertex -31 1 0
      vertex -30.691 0.951056 4
      vertex -31 1 4
    endloop
  endfacet
  facet normal -0.156434 -0.987688 -0
    outer loop
      vertex -30.691 0.951056 4
      vertex -31 1 0
      vertex -30.691 0.951056 0
    endloop
  endfacet
  facet normal -0.707107 -0.707107 0
    outer loop
      vertex -30.191 0.587785 0
      vertex -30.4122 0.809016 4
      vertex -30.4122 0.809016 0
    endloop
  endfacet
  facet normal -0.707107 -0.707107 0
    outer loop
      vertex -30.4122 0.809016 4
      vertex -30.191 0.587785 0
      vertex -30.191 0.587785 4
    endloop
  endfacet
  facet normal -0.891006 -0.453992 0
    outer loop
      vertex -30.0489 0.309016 0
      vertex -30.191 0.587785 4
      vertex -30.191 0.587785 0
    endloop
  endfacet
  facet normal -0.891006 -0.453992 0
    outer loop
      vertex -30.191 0.587785 4
      vertex -30.0489 0.309016 0
      vertex -30.0489 0.309016 4
    endloop
  endfacet
  facet normal -0.453992 -0.891006 0
    outer loop
      vertex -30.691 0.951056 0
      vertex -30.4122 0.809016 4
      vertex -30.691 0.951056 4
    endloop
  endfacet
  facet normal -0.453992 -0.891006 -0
    outer loop
      vertex -30.4122 0.809016 4
      vertex -30.691 0.951056 0
      vertex -30.4122 0.809016 0
    endloop
  endfacet
  facet normal 0.453994 -0.891005 0
    outer loop
      vertex -31.5878 0.809016 0
      vertex -31.309 0.951056 4
      vertex -31.5878 0.809016 4
    endloop
  endfacet
  facet normal 0.453994 -0.891005 0
    outer loop
      vertex -31.309 0.951056 4
      vertex -31.5878 0.809016 0
      vertex -31.309 0.951056 0
    endloop
  endfacet
  facet normal 0.156434 -0.987688 0
    outer loop
      vertex -31.309 0.951056 0
      vertex -31 1 4
      vertex -31.309 0.951056 4
    endloop
  endfacet
  facet normal 0.156434 -0.987688 0
    outer loop
      vertex -31 1 4
      vertex -31.309 0.951056 0
      vertex -31 1 0
    endloop
  endfacet
  facet normal -0.156434 0.987688 0
    outer loop
      vertex -30.691 -0.951056 0
      vertex -31 -1 4
      vertex -30.691 -0.951056 4
    endloop
  endfacet
  facet normal -0.156434 0.987688 0
    outer loop
      vertex -31 -1 4
      vertex -30.691 -0.951056 0
      vertex -31 -1 0
    endloop
  endfacet
  facet normal -0.891006 0.453992 0
    outer loop
      vertex -30.191 -0.587785 0
      vertex -30.0489 -0.309016 4
      vertex -30.0489 -0.309016 0
    endloop
  endfacet
  facet normal -0.891006 0.453992 0
    outer loop
      vertex -30.0489 -0.309016 4
      vertex -30.191 -0.587785 0
      vertex -30.191 -0.587785 4
    endloop
  endfacet
  facet normal 0.987689 0.156432 0
    outer loop
      vertex -31.9511 -0.309016 4
      vertex -32 0 0
      vertex -32 0 4
    endloop
  endfacet
  facet normal 0.987689 0.156432 0
    outer loop
      vertex -32 0 0
      vertex -31.9511 -0.309016 4
      vertex -31.9511 -0.309016 0
    endloop
  endfacet
  facet normal 0.707104 -0.70711 0
    outer loop
      vertex -31.809 0.587785 0
      vertex -31.5878 0.809016 4
      vertex -31.809 0.587785 4
    endloop
  endfacet
  facet normal 0.707104 -0.70711 0
    outer loop
      vertex -31.5878 0.809016 4
      vertex -31.809 0.587785 0
      vertex -31.5878 0.809016 0
    endloop
  endfacet
  facet normal 0.891006 -0.453992 0
    outer loop
      vertex -31.9511 0.309016 4
      vertex -31.809 0.587785 0
      vertex -31.809 0.587785 4
    endloop
  endfacet
  facet normal 0.891006 -0.453992 0
    outer loop
      vertex -31.809 0.587785 0
      vertex -31.9511 0.309016 4
      vertex -31.9511 0.309016 0
    endloop
  endfacet
  facet normal -0.453992 0.891006 0
    outer loop
      vertex -30.4122 -0.809016 0
      vertex -30.691 -0.951056 4
      vertex -30.4122 -0.809016 4
    endloop
  endfacet
  facet normal -0.453992 0.891006 0
    outer loop
      vertex -30.691 -0.951056 4
      vertex -30.4122 -0.809016 0
      vertex -30.691 -0.951056 0
    endloop
  endfacet
  facet normal -0.987689 0.156432 0
    outer loop
      vertex -30.0489 -0.309016 0
      vertex -30 0 4
      vertex -30 0 0
    endloop
  endfacet
  facet normal -0.987689 0.156432 0
    outer loop
      vertex -30 0 4
      vertex -30.0489 -0.309016 0
      vertex -30.0489 -0.309016 4
    endloop
  endfacet
  facet normal 0.707104 0.70711 -0
    outer loop
      vertex -31.5878 -0.809016 0
      vertex -31.809 -0.587785 4
      vertex -31.5878 -0.809016 4
    endloop
  endfacet
  facet normal 0.707104 0.70711 0
    outer loop
      vertex -31.809 -0.587785 4
      vertex -31.5878 -0.809016 0
      vertex -31.809 -0.587785 0
    endloop
  endfacet
  facet normal 0.156434 0.987688 -0
    outer loop
      vertex -31 -1 0
      vertex -31.309 -0.951056 4
      vertex -31 -1 4
    endloop
  endfacet
  facet normal 0.156434 0.987688 0
    outer loop
      vertex -31.309 -0.951056 4
      vertex -31 -1 0
      vertex -31.309 -0.951056 0
    endloop
  endfacet
  facet normal 0.891006 0.453992 0
    outer loop
      vertex -31.809 -0.587785 4
      vertex -31.9511 -0.309016 0
      vertex -31.9511 -0.309016 4
    endloop
  endfacet
  facet normal 0.891006 0.453992 0
    outer loop
      vertex -31.9511 -0.309016 0
      vertex -31.809 -0.587785 4
      vertex -31.809 -0.587785 0
    endloop
  endfacet
  facet normal -0.707107 0.707107 0
    outer loop
      vertex -30.4122 -0.809016 0
      vertex -30.191 -0.587785 4
      vertex -30.191 -0.587785 0
    endloop
  endfacet
  facet normal -0.707107 0.707107 0
    outer loop
      vertex -30.191 -0.587785 4
      vertex -30.4122 -0.809016 0
      vertex -30.4122 -0.809016 4
    endloop
  endfacet
  facet normal 0.453994 0.891005 -0
    outer loop
      vertex -31.309 -0.951056 0
      vertex -31.5878 -0.809016 4
      vertex -31.309 -0.951056 4
    endloop
  endfacet
  facet normal 0.453994 0.891005 0
    outer loop
      vertex -31.5878 -0.809016 4
      vertex -31.309 -0.951056 0
      vertex -31.5878 -0.809016 0
    endloop
  endfacet
  facet normal 1 -0 0
    outer loop
      vertex -28.5 -6.25 4
      vertex -28.5 6.25 0
      vertex -28.5 6.25 4
    endloop
  endfacet
  facet normal 1 0 0
    outer loop
      vertex -28.5 6.25 0
      vertex -28.5 -6.25 4
      vertex -28.5 -6.25 0
    endloop
  endfacet
  facet normal -1 0 0
    outer loop
      vertex -5.5 -6.25 0
      vertex -5.5 6.25 4
      vertex -5.5 6.25 0
    endloop
  endfacet
  facet normal -1 -0 0
    outer loop
      vertex -5.5 6.25 4
      vertex -5.5 -6.25 0
      vertex -5.5 -6.25 4
    endloop
  endfacet
  facet normal 0 -1 0
    outer loop
      vertex -28.5 6.25 0
      vertex -5.5 6.25 4
      vertex -28.5 6.25 4
    endloop
  endfacet
  facet normal 0 -1 -0
    outer loop
      vertex -5.5 6.25 4
      vertex -28.5 6.25 0
      vertex -5.5 6.25 0
    endloop
  endfacet
  facet normal 0 1 -0
    outer loop
      vertex -5.5 -6.25 0
      vertex -28.5 -6.25 4
      vertex -5.5 -6.25 4
    endloop
  endfacet
  facet normal 0 1 0
    outer loop
      vertex -28.5 -6.25 4
      vertex -5.5 -6.25 0
      vertex -28.5 -6.25 0
    endloop
  endfacet
endsolid OpenSCAD_Model
